<svg width="80" height="80" viewBox="0 0 80 80" fill="none" xmlns="http://www.w3.org/2000/svg">
<path d="M38.1692 0L36.1575 16.0944L26.7389 9.14453L32.5913 19.8434L22.4413 18.5633L31.1124 24.0155L22.6908 22.0611L22.3413 23.378L16.8085 44.2098L16.8038 44.2312C16.1085 47.2266 16.8396 49.9456 18.3832 51.932C19.6364 53.5447 21.3738 54.7012 23.2832 55.3811L20.0074 69.4955C18.3316 69.1342 16.955 68.9053 15.8689 68.8955C14.1072 68.8795 13.0957 69.4339 12.7536 70.908L28.6372 74.5937C29.1902 72.2112 27.1074 71.2158 22.7471 70.1312L26.0225 56.0167C28.036 56.247 30.1053 55.9737 31.9405 55.078C34.2014 53.9744 36.0553 51.8555 36.7503 48.8603L36.7553 48.8386L40.3911 30.5723L43.2852 44.6327L43.2903 44.6541C44.0049 47.6447 45.8728 49.7517 48.1408 50.8406C49.9817 51.7244 52.0527 51.9841 54.0646 51.7406L57.4322 65.8336C53.0791 66.9464 51.0028 67.9555 51.5713 70.3342L67.4303 66.5447C67.0786 65.0728 66.0636 64.5253 64.3019 64.5528C63.216 64.5697 61.8408 64.8075 60.1675 65.1795L56.7999 51.0869C58.7046 50.3947 60.4342 49.2267 61.6769 47.6061C63.2075 45.6095 63.921 42.8858 63.2064 39.8952L63.2011 39.8734L57.1742 17.7637L51.0638 19.2241L58.8356 14.0825L47.4969 17.1912L52.4346 4.11516L42.8332 15.3627L38.1692 0ZM55.1778 21.1325L57.5896 29.9808L42.8341 28.4923L41.9689 24.2886L55.1778 21.1325ZM24.7097 25.4166L37.9388 28.4866L37.5677 30.3503L22.9782 31.9362L24.7097 25.4166ZM43.4283 31.3784L45.9728 31.6352C46.5238 34.9608 48.0677 43.4258 49.7939 45.05C51.4977 46.6531 56.8002 45.4556 56.8002 45.4556C51.0392 45.9041 47.7521 37.0334 46.1583 31.6537L58.3817 32.8869L60.4727 40.5569C61.0053 42.7952 60.5092 44.5069 59.445 45.895C58.3796 47.2848 56.6672 48.3098 54.7972 48.7567C52.9272 49.2036 50.9364 49.0636 49.3578 48.3056C47.7816 47.5489 46.5653 46.2466 46.0283 44.0106L43.4283 31.3784ZM36.9924 33.2419L34.0083 48.2336C33.486 50.4734 32.2782 51.7839 30.7067 52.5509C29.133 53.3191 27.1433 53.4723 25.2707 53.0377C23.3978 52.6031 21.6786 51.5892 20.6041 50.2066C19.5311 48.8256 19.0238 47.1173 19.5416 44.8761L22.2046 34.8492L25.24 34.5194C23.9985 38.1116 21.6953 45.297 22.3672 47.38C23.0852 49.6066 28.3067 51.1181 28.3067 51.1181C22.7997 47.8962 24.2063 39.7417 25.468 34.4947L36.9924 33.2419Z" fill="#FFFBDE"/>
</svg>
